<mxfile host="app.diagrams.net" modified="2023-06-28T16:46:18.141Z" agent="Mozilla/5.0 (Windows NT 10.0; Win64; x64) AppleWebKit/537.36 (KHTML, like Gecko) Chrome/114.0.0.0 Safari/537.36" version="21.5.1" etag="1xSAoEdifeu6OR_mTNxa" type="github">
  <diagram name="第 1 页" id="2FlQvK1mRQ7pWjCl45Nl">
    <mxGraphModel>
      <root>
        <mxCell id="0" />
        <mxCell id="1" parent="0" />
      </root>
    </mxGraphModel>
  </diagram>
</mxfile>
